<svg width="149" height="32" viewBox="0 0 149 32" fill="none" xmlns="http://www.w3.org/2000/svg">
<path d="M9.45 8.49999C11.7167 8.49999 13.5 9.04166 14.8 10.125C16.1 11.2083 16.75 12.7 16.75 14.6C16.75 16.5 16.1 17.9917 14.8 19.075C13.5 20.1583 11.7167 20.7 9.45 20.7H5.125V26H2.625V8.49999H9.45ZM9.375 18.525C10.9583 18.525 12.1667 18.1917 13 17.525C13.8333 16.8417 14.25 15.8667 14.25 14.6C14.25 13.3333 13.8333 12.3667 13 11.7C12.1667 11.0167 10.9583 10.675 9.375 10.675H5.125V18.525H9.375ZM25.999 24.05C27.5824 24.05 28.8574 23.5167 29.824 22.45L31.124 24C30.5407 24.7 29.799 25.2333 28.899 25.6C28.0157 25.9667 27.024 26.15 25.924 26.15C24.524 26.15 23.2824 25.8667 22.199 25.3C21.1157 24.7167 20.274 23.9083 19.674 22.875C19.0907 21.8417 18.799 20.675 18.799 19.375C18.799 18.0917 19.0824 16.9333 19.649 15.9C20.2324 14.8667 21.024 14.0667 22.024 13.5C23.0407 12.9167 24.1824 12.625 25.449 12.625C26.649 12.625 27.7407 12.9 28.724 13.45C29.7074 13.9833 30.4907 14.7417 31.074 15.725C31.6574 16.7083 31.9574 17.8417 31.974 19.125L21.449 21.175C21.7824 22.0917 22.3407 22.8 23.124 23.3C23.924 23.8 24.8824 24.05 25.999 24.05ZM25.449 14.65C24.6157 14.65 23.8657 14.8417 23.199 15.225C22.549 15.6083 22.0407 16.15 21.674 16.85C21.3074 17.5333 21.124 18.3333 21.124 19.25V19.5L29.599 17.9C29.3824 16.9333 28.899 16.15 28.149 15.55C27.399 14.95 26.499 14.65 25.449 14.65ZM42.3066 25.225C41.9566 25.525 41.5233 25.7583 41.0066 25.925C40.49 26.075 39.9566 26.15 39.4066 26.15C38.0733 26.15 37.04 25.7917 36.3066 25.075C35.5733 24.3583 35.2066 23.3333 35.2066 22V9.84999H37.6066V12.75H41.4066V14.725H37.6066V21.9C37.6066 22.6167 37.7816 23.1667 38.1316 23.55C38.4983 23.9333 39.015 24.125 39.6816 24.125C40.415 24.125 41.04 23.9167 41.5566 23.5L42.3066 25.225ZM45.1949 12.75H47.5949V26H45.1949V12.75ZM46.3949 10.2C45.9283 10.2 45.5366 10.05 45.2199 9.74999C44.9199 9.44999 44.7699 9.08332 44.7699 8.64999C44.7699 8.21666 44.9199 7.84999 45.2199 7.54999C45.5366 7.23332 45.9283 7.07499 46.3949 7.07499C46.8616 7.07499 47.2449 7.22499 47.5449 7.52499C47.8616 7.80832 48.0199 8.16666 48.0199 8.59999C48.0199 9.04999 47.8616 9.43332 47.5449 9.74999C47.2449 10.05 46.8616 10.2 46.3949 10.2ZM59.2023 12.625C60.4857 12.625 61.6357 12.9083 62.6523 13.475C63.669 14.0417 64.4607 14.8333 65.0273 15.85C65.6107 16.8667 65.9023 18.0417 65.9023 19.375C65.9023 20.7083 65.6107 21.8917 65.0273 22.925C64.4607 23.9417 63.669 24.7333 62.6523 25.3C61.6357 25.8667 60.4857 26.15 59.2023 26.15C58.2523 26.15 57.3773 25.9667 56.5773 25.6C55.794 25.2333 55.1273 24.7 54.5773 24V30.85H52.1773V12.75H54.4773V14.85C55.0107 14.1167 55.6857 13.5667 56.5023 13.2C57.319 12.8167 58.219 12.625 59.2023 12.625ZM59.0023 24.05C59.8523 24.05 60.6107 23.8583 61.2773 23.475C61.9607 23.075 62.494 22.525 62.8773 21.825C63.2773 21.1083 63.4773 20.2917 63.4773 19.375C63.4773 18.4583 63.2773 17.65 62.8773 16.95C62.494 16.2333 61.9607 15.6833 61.2773 15.3C60.6107 14.9167 59.8523 14.725 59.0023 14.725C58.169 14.725 57.4107 14.925 56.7273 15.325C56.0607 15.7083 55.5273 16.25 55.1273 16.95C54.744 17.65 54.5523 18.4583 54.5523 19.375C54.5523 20.2917 54.744 21.1083 55.1273 21.825C55.5107 22.525 56.044 23.075 56.7273 23.475C57.4107 23.8583 58.169 24.05 59.0023 24.05ZM76.2434 12.625C77.5267 12.625 78.6767 12.9083 79.6934 13.475C80.71 14.0417 81.5017 14.8333 82.0684 15.85C82.6517 16.8667 82.9434 18.0417 82.9434 19.375C82.9434 20.7083 82.6517 21.8917 82.0684 22.925C81.5017 23.9417 80.71 24.7333 79.6934 25.3C78.6767 25.8667 77.5267 26.15 76.2434 26.15C75.2934 26.15 74.4184 25.9667 73.6184 25.6C72.835 25.2333 72.1684 24.7 71.6184 24V30.85H69.2184V12.75H71.5184V14.85C72.0517 14.1167 72.7267 13.5667 73.5434 13.2C74.36 12.8167 75.26 12.625 76.2434 12.625ZM76.0434 24.05C76.8934 24.05 77.6517 23.8583 78.3184 23.475C79.0017 23.075 79.535 22.525 79.9184 21.825C80.3184 21.1083 80.5184 20.2917 80.5184 19.375C80.5184 18.4583 80.3184 17.65 79.9184 16.95C79.535 16.2333 79.0017 15.6833 78.3184 15.3C77.6517 14.9167 76.8934 14.725 76.0434 14.725C75.21 14.725 74.4517 14.925 73.7684 15.325C73.1017 15.7083 72.5684 16.25 72.1684 16.95C71.785 17.65 71.5934 18.4583 71.5934 19.375C71.5934 20.2917 71.785 21.1083 72.1684 21.825C72.5517 22.525 73.085 23.075 73.7684 23.475C74.4517 23.8583 75.21 24.05 76.0434 24.05ZM86.2594 12.75H88.6594V26H86.2594V12.75ZM87.4594 10.2C86.9927 10.2 86.601 10.05 86.2844 9.74999C85.9844 9.44999 85.8344 9.08332 85.8344 8.64999C85.8344 8.21666 85.9844 7.84999 86.2844 7.54999C86.601 7.23332 86.9927 7.07499 87.4594 7.07499C87.926 7.07499 88.3094 7.22499 88.6094 7.52499C88.926 7.80832 89.0844 8.16666 89.0844 8.59999C89.0844 9.04999 88.926 9.43332 88.6094 9.74999C88.3094 10.05 87.926 10.2 87.4594 10.2ZM98.9168 26.15C97.6001 26.15 96.4168 25.8583 95.3668 25.275C94.3168 24.6917 93.4918 23.8917 92.8918 22.875C92.3085 21.8417 92.0168 20.675 92.0168 19.375C92.0168 18.075 92.3085 16.9167 92.8918 15.9C93.4918 14.8667 94.3168 14.0667 95.3668 13.5C96.4168 12.9167 97.6001 12.625 98.9168 12.625C100.233 12.625 101.408 12.9167 102.442 13.5C103.492 14.0667 104.308 14.8667 104.892 15.9C105.492 16.9167 105.792 18.075 105.792 19.375C105.792 20.675 105.492 21.8417 104.892 22.875C104.308 23.8917 103.492 24.6917 102.442 25.275C101.408 25.8583 100.233 26.15 98.9168 26.15ZM98.9168 24.05C99.7668 24.05 100.525 23.8583 101.192 23.475C101.875 23.075 102.408 22.525 102.792 21.825C103.175 21.1083 103.367 20.2917 103.367 19.375C103.367 18.4583 103.175 17.65 102.792 16.95C102.408 16.2333 101.875 15.6833 101.192 15.3C100.525 14.9167 99.7668 14.725 98.9168 14.725C98.0668 14.725 97.3001 14.9167 96.6168 15.3C95.9501 15.6833 95.4168 16.2333 95.0168 16.95C94.6335 17.65 94.4418 18.4583 94.4418 19.375C94.4418 20.2917 94.6335 21.1083 95.0168 21.825C95.4168 22.525 95.9501 23.075 96.6168 23.475C97.3001 23.8583 98.0668 24.05 98.9168 24.05ZM116.186 12.625C117.869 12.625 119.203 13.1167 120.186 14.1C121.186 15.0667 121.686 16.4917 121.686 18.375V26H119.286V18.65C119.286 17.3667 118.978 16.4 118.361 15.75C117.744 15.1 116.861 14.775 115.711 14.775C114.411 14.775 113.386 15.1583 112.636 15.925C111.886 16.675 111.511 17.7583 111.511 19.175V26H109.111V12.75H111.411V14.75C111.894 14.0667 112.544 13.5417 113.361 13.175C114.194 12.8083 115.136 12.625 116.186 12.625ZM138.701 12.75V26H136.401V23.9C135.867 24.6333 135.192 25.1917 134.376 25.575C133.559 25.9583 132.659 26.15 131.676 26.15C130.392 26.15 129.242 25.8667 128.226 25.3C127.209 24.7333 126.409 23.9417 125.826 22.925C125.259 21.8917 124.976 20.7083 124.976 19.375C124.976 18.0417 125.259 16.8667 125.826 15.85C126.409 14.8333 127.209 14.0417 128.226 13.475C129.242 12.9083 130.392 12.625 131.676 12.625C132.626 12.625 133.501 12.8083 134.301 13.175C135.101 13.525 135.767 14.05 136.301 14.75V12.75H138.701ZM131.876 24.05C132.709 24.05 133.467 23.8583 134.151 23.475C134.834 23.075 135.367 22.525 135.751 21.825C136.134 21.1083 136.326 20.2917 136.326 19.375C136.326 18.4583 136.134 17.65 135.751 16.95C135.367 16.2333 134.834 15.6833 134.151 15.3C133.467 14.9167 132.709 14.725 131.876 14.725C131.026 14.725 130.259 14.9167 129.576 15.3C128.909 15.6833 128.376 16.2333 127.976 16.95C127.592 17.65 127.401 18.4583 127.401 19.375C127.401 20.2917 127.592 21.1083 127.976 21.825C128.376 22.525 128.909 23.075 129.576 23.475C130.259 23.8583 131.026 24.05 131.876 24.05ZM147.267 26.15C145.983 26.15 144.992 25.8 144.292 25.1C143.592 24.3833 143.242 23.3833 143.242 22.1V7.44999H145.642V21.9C145.642 22.6167 145.808 23.1667 146.142 23.55C146.492 23.9333 147.008 24.125 147.692 24.125C148.108 24.125 148.5 24.0417 148.867 23.875L148.992 25.85C148.442 26.05 147.867 26.15 147.267 26.15Z" fill="black"/>
<g clip-path="url(#clip0_5_45)">
<path d="M43.4645 5.85193C44.074 6.02197 44.706 5.66567 44.8761 5.05612C45.0461 4.44656 44.6898 3.81458 44.0803 3.64454C43.4707 3.4745 42.8387 3.83079 42.6687 4.44035C42.4986 5.0499 42.8549 5.68189 43.4645 5.85193Z" fill="black"/>
<path d="M45.9438 4.64021C46.5533 4.81025 47.1853 4.45395 47.3553 3.8444C47.5254 3.23484 47.1691 2.60286 46.5595 2.43282C45.95 2.26278 45.318 2.61907 45.148 3.22863C44.9779 3.83818 45.3342 4.47017 45.9438 4.64021Z" fill="black"/>
<path d="M48.5926 5.37913C49.2022 5.54917 49.8342 5.19288 50.0042 4.58332C50.1742 3.97377 49.818 3.34178 49.2084 3.17174C48.5988 3.0017 47.9669 3.358 47.7968 3.96755C47.6268 4.57711 47.9831 5.20909 48.5926 5.37913Z" fill="black"/>
<path d="M50.0866 7.69924C50.6962 7.86928 51.3282 7.51298 51.4982 6.90343C51.6683 6.29387 51.312 5.66189 50.7024 5.49185C50.0929 5.32181 49.4609 5.6781 49.2908 6.28766C49.1208 6.89721 49.4771 7.5292 50.0866 7.69924Z" fill="black"/>
<path d="M49.2922 8.62689C49.0337 8.06944 48.8186 7.59545 48.5557 7.03677C48.4191 6.74172 48.2251 6.43066 47.9457 6.2385C47.902 6.20729 47.8572 6.1805 47.8111 6.15813C47.7056 6.10968 47.5864 6.07643 47.4716 6.04441C47.3569 6.01239 47.2377 5.97914 47.1167 5.96919C47.0657 5.96447 47.0134 5.96417 46.9599 5.96828C46.6213 5.98803 46.2988 6.155 46.0248 6.33551C45.5151 6.67868 45.0857 6.97286 44.5715 7.31479C43.8319 7.7318 42.9425 8.17366 42.825 9.10681C42.8274 9.59283 43.0253 10.1286 43.5679 10.418C43.8717 10.5741 44.973 10.6006 46.0679 10.906L46.1473 10.9282C47.2422 11.2336 48.1994 11.7766 48.5389 11.8047C49.153 11.838 49.6009 11.4776 49.8533 11.0674C50.2414 10.205 49.7092 9.36656 49.2922 8.62689Z" fill="black"/>
</g>
<g clip-path="url(#clip1_5_45)">
<path d="M84.4645 5.85193C85.074 6.02197 85.706 5.66567 85.8761 5.05612C86.0461 4.44656 85.6898 3.81458 85.0803 3.64454C84.4707 3.4745 83.8387 3.83079 83.6687 4.44035C83.4986 5.0499 83.8549 5.68189 84.4645 5.85193Z" fill="black"/>
<path d="M86.9438 4.64021C87.5533 4.81025 88.1853 4.45395 88.3553 3.8444C88.5254 3.23484 88.1691 2.60286 87.5595 2.43282C86.95 2.26278 86.318 2.61907 86.148 3.22863C85.9779 3.83818 86.3342 4.47017 86.9438 4.64021Z" fill="black"/>
<path d="M89.5926 5.37913C90.2022 5.54917 90.8342 5.19288 91.0042 4.58332C91.1742 3.97377 90.818 3.34178 90.2084 3.17174C89.5988 3.0017 88.9669 3.358 88.7968 3.96755C88.6268 4.57711 88.9831 5.20909 89.5926 5.37913Z" fill="black"/>
<path d="M91.0866 7.69924C91.6962 7.86928 92.3282 7.51298 92.4982 6.90343C92.6683 6.29387 92.312 5.66189 91.7024 5.49185C91.0929 5.32181 90.4609 5.6781 90.2908 6.28766C90.1208 6.89721 90.4771 7.5292 91.0866 7.69924Z" fill="black"/>
<path d="M90.2922 8.62689C90.0337 8.06944 89.8186 7.59545 89.5557 7.03677C89.4191 6.74172 89.2251 6.43066 88.9457 6.2385C88.902 6.20729 88.8572 6.1805 88.8111 6.15813C88.7056 6.10968 88.5864 6.07643 88.4716 6.04441C88.3569 6.01239 88.2377 5.97914 88.1167 5.96919C88.0657 5.96447 88.0134 5.96417 87.9599 5.96828C87.6213 5.98803 87.2988 6.155 87.0248 6.33551C86.5151 6.67868 86.0857 6.97286 85.5715 7.31479C84.8319 7.7318 83.9425 8.17366 83.825 9.10681C83.8274 9.59283 84.0253 10.1286 84.5679 10.418C84.8717 10.5741 85.973 10.6006 87.0679 10.906L87.1473 10.9282C88.2422 11.2336 89.1994 11.7766 89.5389 11.8047C90.153 11.838 90.6009 11.4776 90.8533 11.0674C91.2414 10.205 90.7092 9.36656 90.2922 8.62689Z" fill="black"/>
</g>
<defs>
<clipPath id="clip0_5_45">
<rect width="11" height="11" fill="white" transform="translate(42.9557) rotate(15.5869)"/>
</clipPath>
<clipPath id="clip1_5_45">
<rect width="11" height="11" fill="white" transform="translate(83.9557) rotate(15.5869)"/>
</clipPath>
</defs>
</svg>
