<svg width="16" height="16" viewBox="0 0 16 16" fill="none" xmlns="http://www.w3.org/2000/svg">
<g clip-path="url(#clip0_8_124)">
<path d="M3.86288 6.52484C4.54253 6.71444 5.24718 6.31717 5.43678 5.63752C5.62637 4.95788 5.2291 4.25322 4.54946 4.06363C3.86981 3.87403 3.16515 4.2713 2.97556 4.95095C2.78597 5.63059 3.18323 6.33525 3.86288 6.52484Z" fill="black"/>
<path d="M6.62722 5.17379C7.30687 5.36338 8.01153 4.96612 8.20112 4.28647C8.39071 3.60682 7.99345 2.90216 7.3138 2.71257C6.63415 2.52298 5.9295 2.92024 5.7399 3.59989C5.55031 4.27954 5.94758 4.9842 6.62722 5.17379Z" fill="black"/>
<path d="M9.58068 5.99768C10.2603 6.18728 10.965 5.79001 11.1546 5.11036C11.3442 4.43072 10.9469 3.72606 10.2673 3.53647C9.58761 3.34687 8.88296 3.74414 8.69336 4.42379C8.50377 5.10343 8.90104 5.80809 9.58068 5.99768Z" fill="black"/>
<path d="M11.2465 8.58458C11.9262 8.77417 12.6308 8.37691 12.8204 7.69726C13.01 7.01761 12.6127 6.31295 11.9331 6.12336C11.2534 5.93377 10.5488 6.33103 10.3592 7.01068C10.1696 7.69033 10.5669 8.39499 11.2465 8.58458Z" fill="black"/>
<path d="M10.3607 9.61891C10.0725 8.99735 9.83262 8.46886 9.5395 7.84593C9.38722 7.51696 9.17095 7.17013 8.85933 6.95587C8.81068 6.92108 8.76065 6.8912 8.70925 6.86625C8.59168 6.81224 8.45878 6.77516 8.33079 6.73946C8.20281 6.70376 8.0699 6.66668 7.93505 6.65559C7.87816 6.65033 7.8199 6.64999 7.76026 6.65458C7.38273 6.6766 7.02308 6.86277 6.71757 7.06404C6.14926 7.44666 5.67046 7.77467 5.09722 8.15593C4.2725 8.62088 3.28088 9.11356 3.1498 10.154C3.15249 10.6959 3.37314 11.2933 3.97816 11.616C4.3169 11.79 5.54484 11.8196 6.7656 12.1601L6.85421 12.1848C8.07497 12.5254 9.14226 13.1308 9.52082 13.1621C10.2055 13.1993 10.7049 12.7974 10.9863 12.3401C11.419 11.3785 10.8256 10.4436 10.3607 9.61891Z" fill="black"/>
</g>
<defs>
<clipPath id="clip0_8_124">
<rect width="12.2649" height="12.2649" fill="white" transform="translate(3.29556) rotate(15.5869)"/>
</clipPath>
</defs>
</svg>
